<svg width="3028" height="1357" viewBox="0 0 3028 1357" fill="none" xmlns="http://www.w3.org/2000/svg">
<g clip-path="url(#clip0_6_421)">
<rect width="3074" height="1383" transform="translate(0 -26)" fill="#121214"/>
<g opacity="0.1">
<path fill-rule="evenodd" clip-rule="evenodd" d="M2696.65 32.2374C2696.65 32.2374 2760.6 93.3267 2798.61 117.079C2836.62 140.831 2857.46 130.653 2857.46 130.653C2857.46 130.653 2891.02 141.097 2911.56 157.934C2932.09 174.772 2935.43 187.558 2948.16 204.528C2960.89 221.499 2999.79 216.848 2999.79 216.848L3088.48 265.928L3178.63 319.381C3178.63 319.381 3089.44 263.642 3080.01 246.671C3070.58 229.701 2997.34 167.99 2984.61 151.02C2971.88 134.049 2954.37 137.445 2941.64 113.693C2928.92 89.9415 2914.59 62.782 2893.9 42.4263C2873.22 22.0596 2830.3 -8.48509 2807.21 -22.0592C2784.11 -35.6334 2747.52 -49.2076 2747.52 -49.2076L2683.88 -64.4798L2621.83 -100.652H2337.01C2337.01 -100.652 2476.71 1.70389 2540.2 27.154C2564.22 36.7769 2696.66 32.2485 2696.66 32.2485L2696.65 32.2374Z" fill="#633BBC"/>
<path fill-rule="evenodd" clip-rule="evenodd" d="M1286.36 348.593C1286.36 348.593 1334.5 382.156 1347.96 394.454C1361.41 406.752 1405.61 412.223 1414.27 415.642C1422.93 419.061 1443.69 449.816 1443.69 449.816C1443.69 449.816 1455.64 472.558 1458.51 488.863C1461.38 505.167 1499.76 523.625 1499.76 523.625L1536.18 540.029C1536.18 540.029 1479.75 472.369 1473.45 455.976C1467.14 439.572 1474.87 424.543 1458.52 415.653C1442.16 406.774 1402.39 392.423 1398.25 376.018C1394.1 359.614 1329.38 302.21 1308.88 291.965C1288.37 281.71 1227.56 257.114 1227.56 257.114C1227.56 257.114 1267.07 326.061 1286.37 348.615L1286.36 348.593Z" fill="#633BBC"/>
<path fill-rule="evenodd" clip-rule="evenodd" d="M225.026 709.422C225.026 709.422 303.468 784.352 350.094 813.498C396.72 842.633 422.282 830.147 422.282 830.147C422.282 830.147 463.454 842.955 488.641 863.61C513.827 884.266 517.928 899.949 533.539 920.771C549.151 941.581 596.87 935.876 596.87 935.876L705.65 996.078L816.231 1061.64C816.231 1061.64 706.837 993.27 695.274 972.459C683.7 951.648 593.851 875.942 578.24 855.131C562.628 834.32 541.158 838.482 525.546 809.336C509.935 780.201 492.367 746.893 466.993 721.92C441.619 696.947 388.967 659.476 360.648 642.828C332.318 626.179 287.43 609.52 287.43 609.52L209.362 590.784L133.241 546.41H-216.143C-216.143 546.41 -44.7817 671.963 33.0986 703.185C62.5522 714.994 225.026 709.433 225.026 709.433V709.422Z" fill="#633BBC"/>
<path fill-rule="evenodd" clip-rule="evenodd" d="M2827.51 514.388C2827.51 514.388 2933.81 577.553 2947.27 589.851C2960.72 602.149 2938.86 610.051 2945.14 617.266C2960.8 635.224 3041.28 659.32 3041.28 659.32C3041.28 659.32 3054.73 664.192 3057.59 680.497C3060.46 696.801 3078.48 707.357 3078.48 707.357L3114.89 723.761C3114.89 723.761 3037.91 654.947 3031.6 638.554C3025.29 622.149 3015.27 620.218 2998.92 611.339C2982.56 602.459 2928.11 579.14 2923.96 562.736C2919.82 546.331 2820.71 417.338 2800.2 407.094C2779.69 396.838 2702.51 384.329 2702.51 384.329C2702.51 384.329 2808.2 491.835 2827.51 514.388V514.388Z" fill="#633BBC"/>
<path fill-rule="evenodd" clip-rule="evenodd" d="M1026.52 -60.5966C1026.52 -60.5966 1116.33 10.8814 1157.75 29.7165C1157.75 29.7165 1209.54 25.5877 1216.55 29.7165C1223.55 33.8454 1254.32 54.2011 1257.5 62.1258C1260.69 70.0394 1262.81 87.0099 1269.17 94.9346C1275.54 102.848 1332.81 132.261 1352.97 135.657C1373.13 139.053 1421.92 149.231 1431.47 156.024C1441.01 162.817 1437.84 178.644 1443.13 186.569C1448.44 194.482 1480.26 208.067 1492.99 217.113C1505.71 226.159 1545.48 223.906 1557.42 229.555C1569.36 235.216 1594.81 252.175 1594.81 252.175L1604.35 261.221C1604.35 261.221 1599.03 280.456 1604.35 286.105C1609.67 291.766 1631.94 296.283 1631.94 296.283C1631.94 296.283 1614.96 278.18 1614.96 266.87C1614.96 255.56 1604.35 246.504 1604.35 246.504C1604.35 246.504 1551.32 220.487 1543.89 213.695C1536.47 206.902 1469.63 148.077 1464.33 137.899C1459.03 127.721 1447.36 99.4409 1441 91.5161C1434.63 83.6025 1374.17 66.632 1359.32 59.8394C1344.47 53.0468 1325.36 32.6911 1316.35 15.7206C1307.34 -1.24987 1290.37 -48.2211 1285.06 -54.4144C1279.75 -60.6077 1268.09 -60.6077 1268.09 -60.6077H1026.49L1026.52 -60.5966Z" fill="#633BBC"/>
<path fill-rule="evenodd" clip-rule="evenodd" d="M1922.41 460.34C1922.41 460.34 1970.54 493.903 1984 506.201C1997.46 518.499 2041.66 523.971 2050.32 527.389C2058.98 530.808 2079.73 561.563 2079.73 561.563C2079.73 561.563 2091.69 584.305 2094.55 600.61C2097.42 616.914 2135.81 635.372 2135.81 635.372L2172.22 651.776C2172.22 651.776 2115.79 584.117 2109.5 567.723C2103.19 551.319 2110.91 536.291 2094.56 527.4C2078.2 518.521 2038.43 504.17 2034.29 487.766C2030.15 471.361 1965.42 413.957 1944.92 403.712C1924.42 393.457 1863.6 368.861 1863.6 368.861C1863.6 368.861 1903.11 437.809 1922.42 460.362L1922.41 460.34Z" fill="#633BBC"/>
<path fill-rule="evenodd" clip-rule="evenodd" d="M1934.63 84.7347C1934.63 84.7347 1998.59 145.824 2036.6 169.576C2074.61 193.328 2095.44 183.15 2095.44 183.15C2095.44 183.15 2129.01 193.594 2149.54 210.432C2170.07 227.269 2166.89 257.814 2179.62 274.784C2192.35 291.755 2244.85 279.879 2244.85 279.879L2323.54 372.567L2375.54 430.892C2375.54 430.892 2319.4 352.833 2309.97 335.873C2300.54 318.903 2235.31 220.487 2222.57 203.517C2209.84 186.546 2192.34 189.943 2179.61 166.191C2166.88 142.439 2152.56 115.279 2131.87 94.9237C2111.19 74.5569 2068.27 44.0122 2045.17 30.4381C2022.08 16.8639 1985.48 3.28977 1985.48 3.28977L1921.84 -11.9826L1859.79 -48.1544H1574.98C1574.98 -48.1544 1714.68 54.2012 1778.16 79.6513C1802.19 89.2742 1934.62 84.7458 1934.62 84.7458L1934.63 84.7347Z" fill="#633BBC"/>
<path fill-rule="evenodd" clip-rule="evenodd" d="M2186.39 -37.8539C2186.39 -37.8539 2221.01 14.7446 2245.8 30.0169C2270.58 45.2892 2301.92 51.7933 2313.64 67.0656C2325.36 82.3379 2370.7 117.256 2370.7 117.256L2435.81 145.969C2435.81 145.969 2347.17 66.0556 2337.46 47.4646C2327.75 28.8848 2301.68 13.6125 2301.68 13.6125L2186.39 -37.8539V-37.8539Z" fill="#633BBC"/>
<path fill-rule="evenodd" clip-rule="evenodd" d="M-36.0261 272.711C-36.0261 272.711 75.3459 358.629 97.7015 379.295C120.057 399.962 180.109 398.397 199.988 420.085C219.866 441.772 255.512 451.273 280.47 480.741C305.427 510.198 388.085 531.908 416.258 566.67C444.442 601.432 492.369 615.672 516.525 631.366C540.682 647.06 615.544 685.075 615.544 685.075C615.544 685.075 524.154 639.458 509.25 593.84C494.347 548.223 502.808 491.374 502.808 491.374C502.808 491.374 521.958 486.901 502.808 449.131C483.658 411.361 499.655 387.287 475.613 355.61C451.571 323.933 440.071 266.906 456.515 240.302C472.959 213.697 511.27 135.582 502.808 89.1103C494.347 42.6274 568.72 8.42014 568.72 8.42014C568.72 8.42014 681.185 19.83 694.704 38.8316C708.224 57.8443 807.2 89.1103 807.2 89.1103C807.2 89.1103 886.288 93.7719 897.07 89.1103C907.842 84.4487 941.74 114.86 969.351 141.465C996.962 168.08 1002.34 151.865 1040.69 180.345C1079.04 208.825 1086.36 251.823 1108.37 272.722C1108.37 272.722 1083.74 226.828 1076 180.345C1076 180.345 1115.39 184.973 1143.91 192.576C1172.42 200.179 1186.09 198.492 1205.79 214.541C1225.49 230.59 1247.18 240.724 1247.18 240.724C1247.18 240.724 1213.82 208.625 1205.79 190.878C1197.77 173.141 1191.43 155.394 1181.14 148.635C1170.84 141.875 1054.33 110.532 1024.48 95.792C994.631 81.0524 969.351 32.4829 969.351 32.4829C969.351 32.4829 901.035 -69.8727 857.937 -71.4265C814.839 -72.9804 739.29 -95.1009 711.783 -115.778C684.276 -136.456 593.5 -253.94 593.5 -253.94H-20.8726L-36.0261 272.711V272.711Z" fill="#633BBC"/>
<path fill-rule="evenodd" clip-rule="evenodd" d="M949.48 478.406C949.48 478.406 997.615 511.97 1011.07 524.268C1024.53 536.565 1068.73 542.037 1077.39 545.456C1086.05 548.874 1106.8 579.63 1106.8 579.63C1106.8 579.63 1118.76 602.372 1121.62 618.676C1124.49 634.981 1162.88 653.439 1162.88 653.439L1199.29 669.843C1199.29 669.843 1142.86 602.183 1136.57 585.79C1130.26 569.385 1137.98 554.357 1121.63 545.467C1105.27 536.588 1065.5 522.237 1061.36 505.832C1057.22 489.428 992.495 432.023 971.992 421.779C951.488 411.523 890.677 386.928 890.677 386.928C890.677 386.928 930.184 455.875 949.49 478.428L949.48 478.406Z" fill="#633BBC"/>
</g>
<path d="M2178.79 363.087C2177.49 362.315 2175.9 362.971 2175.24 364.553C2174.59 366.136 2175.14 368.065 2176.47 368.837C2177.81 369.609 2179.37 368.953 2180.02 367.371C2180.67 365.788 2180.13 363.859 2178.79 363.087Z" fill="white"/>
<path d="M2115.99 73.1732C2115.12 72.6715 2114.04 73.096 2113.6 74.138C2113.17 75.1801 2113.53 76.4536 2114.4 76.9939C2115.27 77.4956 2116.35 77.0711 2116.78 76.0291C2117.22 74.987 2116.86 73.7135 2115.99 73.1732Z" fill="white"/>
<path d="M2486.34 308.482C2484.27 308.984 2482.9 311.377 2483.33 313.886C2483.73 316.394 2485.76 317.977 2487.82 317.513C2489.88 317.012 2491.26 314.619 2490.82 312.11C2490.42 309.64 2488.4 308.019 2486.34 308.482Z" fill="white"/>
<g opacity="0.64">
<path d="M2964.64 191.841C2964.64 192.613 2965.15 193.23 2965.8 193.23C2966.45 193.23 2966.96 192.613 2966.96 191.841C2966.96 191.069 2966.45 190.452 2965.8 190.452C2965.15 190.452 2964.64 191.069 2964.64 191.841Z" fill="white"/>
<path d="M2917.42 129.281C2917.42 129.783 2917.79 130.208 2918.18 130.208C2918.58 130.208 2918.94 129.783 2918.94 129.281C2918.94 128.78 2918.58 128.355 2918.18 128.355C2917.79 128.355 2917.42 128.78 2917.42 129.281Z" fill="white"/>
<path d="M2905.95 262.547C2905.37 262.2 2904.69 262.509 2904.4 263.165C2904.11 263.821 2904.36 264.67 2904.94 265.017C2905.52 265.364 2906.21 265.056 2906.49 264.4C2906.78 263.705 2906.53 262.894 2905.95 262.547Z" fill="white"/>
<path d="M2795.16 148.541C2794.76 148.309 2794.33 148.541 2794.15 148.965C2793.97 149.429 2794.15 149.969 2794.51 150.201C2794.91 150.432 2795.34 150.2 2795.52 149.776C2795.7 149.351 2795.52 148.773 2795.16 148.541Z" fill="white"/>
</g>
<g opacity="0.64">
<path d="M2269.43 200.227C2269.53 199.455 2269.1 198.76 2268.49 198.606C2267.87 198.49 2267.26 198.992 2267.15 199.725C2267.04 200.497 2267.47 201.192 2268.09 201.346C2268.7 201.501 2269.32 200.96 2269.43 200.227Z" fill="white"/>
<path d="M2303.26 209.565C2303.33 209.063 2303.04 208.6 2302.64 208.484C2302.21 208.407 2301.81 208.755 2301.74 209.256C2301.67 209.758 2301.96 210.221 2302.35 210.337C2302.79 210.414 2303.19 210.067 2303.26 209.565Z" fill="white"/>
<path d="M2389.72 208.943C2390.66 209.753 2391.96 209.483 2392.62 208.364C2393.3 207.244 2393.09 205.701 2392.15 204.89C2391.2 204.08 2389.9 204.35 2389.25 205.469C2388.56 206.588 2388.78 208.132 2389.72 208.943Z" fill="white"/>
<path d="M2257.8 105.164C2258.42 105.704 2259.29 105.55 2259.76 104.778C2260.19 104.044 2260.08 103.003 2259.43 102.462C2258.82 101.922 2257.95 102.076 2257.48 102.848C2257.04 103.581 2257.15 104.623 2257.8 105.164Z" fill="white"/>
<path d="M2200.84 118.905C2201.74 118.905 2202.46 117.979 2202.46 116.86C2202.46 115.741 2201.67 114.892 2200.76 114.93C2199.86 114.93 2199.14 115.857 2199.14 116.976C2199.14 118.095 2199.93 118.944 2200.84 118.905Z" fill="white"/>
<path d="M2482 87.6488C2482 89.0382 2482.94 90.1574 2484.1 90.1574C2485.25 90.1574 2486.19 89.0382 2486.19 87.6488C2486.19 86.2594 2485.25 85.1401 2484.1 85.1401C2482.94 85.1401 2482 86.2594 2482 87.6488Z" fill="white"/>
<path d="M2557.28 260.855C2557.28 263.634 2559.16 265.873 2561.47 265.873C2563.79 265.873 2565.67 263.634 2565.67 260.855C2565.67 258.077 2563.79 255.838 2561.47 255.838C2559.16 255.838 2557.28 258.077 2557.28 260.855Z" fill="white"/>
</g>
<g opacity="0.64">
<path d="M208.363 158.669C207.82 159.325 207.784 160.367 208.363 161.023C208.906 161.679 209.774 161.718 210.353 161.023C210.895 160.367 210.931 159.325 210.353 158.669C209.774 158.013 208.942 157.974 208.363 158.669Z" fill="white"/>
<path d="M213.637 56.8525C213.275 57.277 213.275 58.0103 213.637 58.4348C213.999 58.8594 214.578 58.8979 214.94 58.4348C215.301 58.0103 215.301 57.3156 214.94 56.8525C214.578 56.3893 213.999 56.3893 213.637 56.8525Z" fill="white"/>
<path d="M107.982 157.346C107.729 156.458 106.969 155.995 106.21 156.265C105.486 156.535 105.088 157.5 105.305 158.388C105.558 159.275 106.318 159.738 107.078 159.468C107.801 159.198 108.199 158.233 107.982 157.346Z" fill="white"/>
<path d="M227.384 296.601C226.48 295.829 225.214 296.138 224.599 297.218C223.984 298.299 224.201 299.804 225.105 300.576C226.01 301.348 227.276 301.039 227.891 299.958C228.506 298.878 228.289 297.373 227.384 296.601Z" fill="white"/>
</g>
<g opacity="0.64">
<path d="M1387.83 232.609C1388.41 233.266 1389.38 233.42 1390 232.88C1390.61 232.378 1390.65 231.413 1390.04 230.718C1389.46 230.062 1388.48 229.908 1387.87 230.448C1387.25 230.95 1387.21 231.915 1387.83 232.609Z" fill="white"/>
<path d="M1294.76 215.819C1295.16 216.282 1295.81 216.359 1296.21 216.012C1296.61 215.664 1296.65 215.008 1296.21 214.584C1295.81 214.121 1295.16 214.044 1294.76 214.391C1294.37 214.738 1294.33 215.394 1294.76 215.819Z" fill="white"/>
<path d="M1385.57 342.138C1384.77 342.293 1384.3 343.103 1384.55 343.952C1384.81 344.801 1385.67 345.303 1386.47 345.149C1387.27 344.994 1387.74 344.184 1387.48 343.335C1387.23 342.486 1386.36 341.984 1385.57 342.138Z" fill="white"/>
<path d="M1192.2 331.567C1191.66 331.682 1191.37 332.223 1191.55 332.763C1191.73 333.303 1192.31 333.689 1192.82 333.573C1193.36 333.458 1193.65 332.917 1193.47 332.377C1193.29 331.837 1192.71 331.451 1192.2 331.567Z" fill="white"/>
<path d="M1514.21 226.823C1513.52 227.749 1513.74 229.138 1514.75 229.949C1515.76 230.759 1517.14 230.682 1517.82 229.756C1518.51 228.829 1518.29 227.44 1517.28 226.63C1516.27 225.819 1514.89 225.896 1514.21 226.823Z" fill="white"/>
</g>
<g opacity="0.64">
<path d="M939.737 335.448C939.194 336.104 939.158 337.146 939.737 337.802C940.315 338.458 941.147 338.497 941.726 337.802C942.269 337.146 942.305 336.104 941.726 335.448C941.184 334.792 940.315 334.753 939.737 335.448Z" fill="white"/>
<path d="M944.976 233.63C944.614 234.055 944.614 234.75 944.976 235.213C945.338 235.637 945.917 235.676 946.278 235.213C946.64 234.788 946.64 234.055 946.278 233.63C945.917 233.206 945.338 233.167 944.976 233.63Z" fill="white"/>
<path d="M834.683 309.549C834.43 308.661 833.67 308.198 832.91 308.468C832.187 308.738 831.789 309.703 832.006 310.591C832.259 311.478 833.019 311.941 833.778 311.671C834.502 311.401 834.9 310.436 834.683 309.549Z" fill="white"/>
<path d="M828.003 122.868C827.858 122.289 827.316 121.98 826.845 122.173C826.375 122.366 826.086 122.984 826.267 123.601C826.411 124.18 826.954 124.489 827.424 124.296C827.895 124.103 828.184 123.485 828.003 122.868Z" fill="white"/>
<path d="M917.076 429.176C916.172 428.404 914.906 428.713 914.291 429.794C913.676 430.874 913.893 432.38 914.797 433.151C915.701 433.923 916.968 433.614 917.582 432.534C918.197 431.453 917.98 429.948 917.076 429.176Z" fill="white"/>
</g>
<g opacity="0.64">
<path d="M1208.21 81.3415C1208.1 82.1134 1208.53 82.808 1209.15 82.9624C1209.76 83.0782 1210.38 82.5765 1210.49 81.8432C1210.6 81.0714 1210.16 80.3766 1209.55 80.2223C1208.93 80.0679 1208.32 80.6082 1208.21 81.3415Z" fill="white"/>
<path d="M1174.36 72.0065C1174.29 72.5082 1174.58 72.9713 1174.98 73.0871C1175.41 73.1643 1175.81 72.817 1175.88 72.3153C1175.95 71.8136 1175.66 71.3505 1175.27 71.2347C1174.83 71.1575 1174.43 71.5048 1174.36 72.0065Z" fill="white"/>
<path d="M1087.9 72.6612C1086.96 71.8507 1085.66 72.1208 1085.01 73.2401C1084.32 74.3593 1084.54 75.903 1085.48 76.7135C1086.42 77.5239 1087.72 77.2538 1088.37 76.1346C1089.06 75.0154 1088.84 73.4716 1087.9 72.6612Z" fill="white"/>
<path d="M1127.26 14.3428C1126.64 13.8025 1125.78 13.9569 1125.31 14.7288C1124.87 15.4621 1124.98 16.5041 1125.63 17.0444C1126.25 17.5847 1127.11 17.4303 1127.58 16.6585C1128.05 15.8866 1127.91 14.8831 1127.26 14.3428Z" fill="white"/>
<path d="M1299.92 192.147C1299.01 192.147 1298.29 193.073 1298.29 194.192C1298.29 195.312 1299.09 196.161 1299.99 196.122C1300.89 196.122 1301.62 195.196 1301.62 194.077C1301.62 192.957 1300.82 192.108 1299.92 192.147Z" fill="white"/>
<path d="M1025.74 325.304C1024.58 325.304 1023.64 324.181 1023.64 322.795C1023.64 321.41 1024.58 320.286 1025.74 320.286C1026.9 320.286 1027.83 321.41 1027.83 322.795C1027.83 324.181 1026.9 325.304 1025.74 325.304Z" fill="white"/>
<path d="M920.33 20.7129C920.33 17.9342 918.449 15.6958 916.134 15.6958C913.819 15.6958 911.938 17.9342 911.938 20.7129C911.938 23.4916 913.819 25.7301 916.134 25.7301C918.449 25.7301 920.33 23.4916 920.33 20.7129Z" fill="white"/>
</g>
<g opacity="0.64">
<path d="M2432.12 640.189C2431.94 639.455 2431.29 638.954 2430.67 639.108C2430.06 639.262 2429.7 639.957 2429.88 640.69C2430.06 641.424 2430.71 641.925 2431.33 641.771C2431.94 641.617 2432.3 640.922 2432.12 640.189Z" fill="white"/>
<path d="M2466.7 634.556C2466.59 634.055 2466.16 633.746 2465.72 633.823C2465.29 633.9 2465.07 634.402 2465.18 634.904C2465.29 635.405 2465.72 635.714 2466.16 635.637C2466.59 635.56 2466.81 635.058 2466.7 634.556Z" fill="white"/>
<path d="M2545.88 597.741C2547.04 598.088 2548.12 597.316 2548.34 596.004C2548.55 594.692 2547.76 593.341 2546.6 592.994C2545.44 592.647 2544.36 593.418 2544.14 594.731C2543.92 596.043 2544.72 597.394 2545.88 597.741Z" fill="white"/>
<path d="M2531.44 667.789C2532.2 668.021 2532.96 667.519 2533.07 666.632C2533.21 665.744 2532.67 664.856 2531.91 664.625C2531.15 664.393 2530.39 664.895 2530.28 665.783C2530.14 666.67 2530.68 667.558 2531.44 667.789Z" fill="white"/>
<path d="M2306.6 576.9C2307.43 576.476 2307.76 575.356 2307.32 574.353C2306.89 573.35 2305.88 572.886 2305.05 573.272C2304.21 573.697 2303.89 574.816 2304.32 575.82C2304.76 576.823 2305.77 577.286 2306.6 576.9Z" fill="white"/>
<path d="M2507.89 342.748C2508.39 344.021 2509.7 344.677 2510.75 344.176C2511.8 343.674 2512.27 342.285 2511.72 341.011C2511.18 339.738 2509.91 339.081 2508.87 339.583C2507.82 340.085 2507.35 341.474 2507.89 342.748Z" fill="white"/>
</g>
<g opacity="0.64">
<path d="M1160.95 599.578C1160.66 597.919 1159.58 596.8 1158.56 597.147C1157.55 597.456 1156.94 599.115 1157.26 600.775C1157.59 602.434 1158.64 603.554 1159.65 603.206C1160.66 602.859 1161.28 601.238 1160.95 599.578Z" fill="white"/>
<path d="M1217.64 586.878C1217.46 585.759 1216.74 585.026 1216.05 585.257C1215.36 585.489 1214.96 586.57 1215.18 587.689C1215.36 588.808 1216.09 589.541 1216.77 589.31C1217.46 589.078 1217.86 587.998 1217.64 586.878Z" fill="white"/>
<path d="M1347.54 503.408C1349.42 504.218 1351.23 502.443 1351.56 499.471C1351.88 496.499 1350.62 493.45 1348.74 492.64C1346.85 491.829 1345.05 493.605 1344.72 496.577C1344.39 499.548 1345.66 502.597 1347.54 503.408Z" fill="white"/>
<path d="M1323.85 662.175C1325.12 662.715 1326.31 661.518 1326.53 659.55C1326.74 657.582 1325.91 655.536 1324.65 654.996C1323.38 654.456 1322.19 655.652 1321.97 657.621C1321.75 659.589 1322.58 661.634 1323.85 662.175Z" fill="white"/>
<path d="M763.427 538.332C764.801 537.405 765.344 534.82 764.62 532.543C763.897 530.266 762.233 529.185 760.858 530.111C759.484 531.037 758.941 533.623 759.664 535.9C760.388 538.177 762.052 539.258 763.427 538.332Z" fill="white"/>
</g>
<g opacity="0.64">
<path d="M1771.98 360.693C1772.6 360.269 1772.82 359.458 1772.49 358.879C1772.17 358.3 1771.41 358.146 1770.79 358.57C1770.18 358.995 1769.96 359.805 1770.28 360.384C1770.61 360.963 1771.37 361.118 1771.98 360.693Z" fill="white"/>
<path d="M1787.86 393.77C1788.26 393.5 1788.4 392.959 1788.19 392.574C1787.97 392.188 1787.46 392.11 1787.06 392.381C1786.67 392.651 1786.52 393.191 1786.74 393.577C1786.96 393.963 1787.46 394.04 1787.86 393.77Z" fill="white"/>
<path d="M1845.74 461.923C1845.78 463.196 1846.83 464.045 1848.06 463.852C1849.29 463.659 1850.27 462.424 1850.19 461.151C1850.16 459.877 1849.11 459.028 1847.88 459.221C1846.65 459.414 1845.67 460.649 1845.74 461.923Z" fill="white"/>
<path d="M1778.53 469.414C1778.53 470.263 1779.25 470.842 1780.09 470.687C1780.92 470.533 1781.53 469.761 1781.53 468.912C1781.53 468.063 1780.81 467.484 1779.98 467.638C1779.14 467.793 1778.53 468.565 1778.53 469.414Z" fill="white"/>
<path d="M1789.07 214.383C1789.69 215.078 1790.84 215.078 1791.6 214.306C1792.36 213.573 1792.47 212.376 1791.86 211.643C1791.24 210.948 1790.08 210.949 1789.32 211.72C1788.56 212.454 1788.46 213.65 1789.07 214.383Z" fill="white"/>
<path d="M2061.87 343.483C2060.89 344.41 2060.71 345.876 2061.47 346.802C2062.23 347.729 2063.64 347.729 2064.62 346.802C2065.6 345.876 2065.78 344.41 2065.02 343.483C2064.26 342.557 2062.85 342.557 2061.87 343.483Z" fill="white"/>
</g>
<g opacity="0.64">
<path d="M530.452 510.94C530.271 510.206 529.62 509.705 529.005 509.859C528.39 510.014 528.029 510.708 528.209 511.442C528.39 512.175 529.042 512.677 529.656 512.522C530.271 512.368 530.633 511.673 530.452 510.94Z" fill="white"/>
<path d="M565.024 505.347C564.915 504.846 564.481 504.537 564.047 504.614C563.613 504.691 563.396 505.193 563.504 505.695C563.613 506.196 564.047 506.505 564.481 506.428C564.915 506.351 565.132 505.849 565.024 505.347Z" fill="white"/>
<path d="M644.209 468.481C645.366 468.829 646.452 468.057 646.669 466.745C646.886 465.432 646.09 464.082 644.932 463.734C643.775 463.387 642.69 464.159 642.473 465.471C642.256 466.783 643.051 468.134 644.209 468.481Z" fill="white"/>
<path d="M404.947 447.648C405.779 447.224 406.104 446.105 405.67 445.101C405.236 444.098 404.223 443.635 403.391 444.021C402.559 444.445 402.234 445.564 402.668 446.568C403.102 447.571 404.115 448.034 404.947 447.648Z" fill="white"/>
</g>
<path d="M1912.1 125.85C1911.05 123.342 1908.52 122.338 1906.42 123.612C1904.32 124.885 1903.49 127.934 1904.54 130.443C1905.59 132.951 1908.12 133.955 1910.22 132.681C1912.32 131.408 1913.15 128.359 1912.1 125.85Z" fill="white"/>
<path d="M1610.2 128.823C1611.68 128.823 1612.84 127.356 1612.84 125.581C1612.84 123.806 1611.61 122.416 1610.16 122.416C1608.68 122.416 1607.52 123.883 1607.52 125.658C1607.52 127.433 1608.75 128.823 1610.2 128.823Z" fill="white"/>
<path d="M1894.85 229.515C1895.83 229.515 1896.63 228.55 1896.59 227.354C1896.59 226.196 1895.76 225.231 1894.78 225.27C1893.81 225.27 1893.01 226.235 1893.05 227.431C1893.05 228.589 1893.88 229.554 1894.85 229.515Z" fill="white"/>
<path d="M1293.81 245.335C1292.87 243.097 1290.59 242.209 1288.71 243.329C1286.83 244.448 1286.1 247.188 1287.04 249.426C1287.99 251.665 1290.26 252.552 1292.14 251.433C1294.03 250.314 1294.75 247.574 1293.81 245.335Z" fill="white"/>
<path d="M1001.47 523.672C1002.55 523.672 1003.42 522.591 1003.42 521.279C1003.42 519.967 1002.52 518.925 1001.43 518.925C1000.35 518.925 999.478 520.005 999.478 521.318C999.478 522.63 1000.38 523.672 1001.47 523.672Z" fill="white"/>
<path d="M1123.31 129.483C1125.41 129.483 1127.08 127.399 1127.04 124.891C1127.04 122.382 1125.3 120.375 1123.21 120.414C1121.11 120.452 1119.44 122.498 1119.48 125.007C1119.48 127.515 1121.22 129.522 1123.31 129.483Z" fill="white"/>
<path d="M425.242 264.33C426.219 263.404 426.4 261.706 425.64 260.548C424.88 259.39 423.47 259.159 422.493 260.085C421.516 261.011 421.335 262.709 422.095 263.867C422.855 265.025 424.265 265.257 425.242 264.33Z" fill="white"/>
<path d="M760.372 792.822C761.457 792.822 762.325 791.741 762.325 790.429C762.325 789.117 761.421 788.075 760.335 788.075C759.25 788.075 758.382 789.156 758.382 790.468C758.382 791.78 759.286 792.822 760.372 792.822Z" fill="white"/>
<path d="M853.255 375.471C855.353 375.471 857.017 373.387 856.981 370.879C856.981 368.37 855.245 366.363 853.147 366.402C851.049 366.441 849.385 368.486 849.421 370.995C849.421 373.503 851.157 375.51 853.255 375.471Z" fill="white"/>
<path d="M184.111 533.478C185.088 532.552 185.269 530.854 184.509 529.696C183.75 528.538 182.339 528.306 181.362 529.233C180.386 530.159 180.205 531.857 180.964 533.015C181.724 534.173 183.135 534.404 184.111 533.478Z" fill="white"/>
<g opacity="0.4" filter="url(#filter0_f_6_421)">
<ellipse cx="1507.58" cy="4.7334" rx="1417.52" ry="761.931" fill="#633BBC"/>
</g>
<rect opacity="0.8" width="3074" height="1659.6" transform="matrix(1 0 0 -1 -0.00138092 1633.6)" fill="url(#paint0_linear_6_421)"/>
</g>
<defs>
<filter id="filter0_f_6_421" x="-658.832" y="-1506.09" width="4332.82" height="3021.64" filterUnits="userSpaceOnUse" color-interpolation-filters="sRGB">
<feFlood flood-opacity="0" result="BackgroundImageFix"/>
<feBlend mode="normal" in="SourceGraphic" in2="BackgroundImageFix" result="shape"/>
<feGaussianBlur stdDeviation="374.444" result="effect1_foregroundBlur_6_421"/>
</filter>
<linearGradient id="paint0_linear_6_421" x1="1537" y1="0" x2="1537" y2="1659.6" gradientUnits="userSpaceOnUse">
<stop stop-color="#121214"/>
<stop offset="1" stop-color="#121214" stop-opacity="0"/>
</linearGradient>
<clipPath id="clip0_6_421">
<rect width="3074" height="1383" fill="white" transform="translate(0 -26)"/>
</clipPath>
</defs>
</svg>
